<?xml version="1.0" encoding="UTF-8" standalone="no"?>
<!-- hard-drive icon by Free Icons (https://free-icons.github.io/free-icons/) -->

<svg
   height="1em"
   fill="currentColor"
   viewBox="0 0 512 512"
   version="1.1"
   id="svg1"
   sodipodi:docname="hard-drive-on.svg"
   inkscape:version="1.4.2 (f4327f4, 2025-05-13)"
   xmlns:inkscape="http://www.inkscape.org/namespaces/inkscape"
   xmlns:sodipodi="http://sodipodi.sourceforge.net/DTD/sodipodi-0.dtd"
   xmlns="http://www.w3.org/2000/svg"
   xmlns:svg="http://www.w3.org/2000/svg">
  <defs
     id="defs1">
    <inkscape:path-effect
       effect="fillet_chamfer"
       id="path-effect9"
       is_visible="true"
       lpeversion="1"
       nodesatellites_param="F,0,0,1,0,29,0,1 @ F,0,0,1,0,29,0,1 @ F,0,0,1,0,29,0,1 @ F,0,0,1,0,29,0,1"
       radius="29"
       unit="px"
       method="auto"
       mode="F"
       chamfer_steps="1"
       flexible="false"
       use_knot_distance="true"
       apply_no_radius="true"
       apply_with_radius="true"
       only_selected="false"
       hide_knots="false" />
    <linearGradient
       id="swatch7"
       inkscape:swatch="solid">
      <stop
         style="stop-color:#000000;stop-opacity:1;"
         offset="0"
         id="stop7" />
    </linearGradient>
  </defs>
  <sodipodi:namedview
     id="namedview1"
     pagecolor="#ffffff"
     bordercolor="#000000"
     borderopacity="0.25"
     inkscape:showpageshadow="2"
     inkscape:pageopacity="0.0"
     inkscape:pagecheckerboard="0"
     inkscape:deskcolor="#d1d1d1"
     inkscape:zoom="2.2792969"
     inkscape:cx="256"
     inkscape:cy="279.25278"
     inkscape:window-width="2560"
     inkscape:window-height="1369"
     inkscape:window-x="2552"
     inkscape:window-y="-8"
     inkscape:window-maximized="1"
     inkscape:current-layer="svg1" />
  <path
     style="fill:#24f200;fill-opacity:1;fill-rule:nonzero;stroke-width:5.71602"
     id="rect8"
     width="481.28879"
     height="421.1825"
     x="14.916885"
     y="43.434452"
     inkscape:path-effect="#path-effect9"
     sodipodi:type="rect"
     d="m 43.916885,43.434452 423.288785,0 a 29,29 45 0 1 29,29 l 0,363.182498 a 29,29 135 0 1 -29,29 H 43.916885 a 29,29 45 0 1 -29,-29 V 72.434452 a 29,29 135 0 1 29,-29 z" />
  <path
     d="M 64 48 Q 44 49 30 62 L 30 62 L 30 62 Q 17 76 16 96 L 16 310 L 16 310 Q 34 289 64 288 L 448 288 L 448 288 Q 478 289 496 310 L 496 96 L 496 96 Q 495 76 482 62 Q 468 49 448 48 L 64 48 L 64 48 Z M 16 352 L 16 416 L 16 352 L 16 416 Q 17 436 30 450 Q 44 463 64 464 L 448 464 L 448 464 Q 468 463 482 450 Q 495 436 496 416 L 496 352 L 496 352 Q 495 332 482 318 Q 468 305 448 304 L 64 304 L 64 304 Q 44 305 30 318 Q 17 332 16 352 L 16 352 Z M 0 352 L 0 96 L 0 352 L 0 96 Q 1 69 19 51 Q 37 33 64 32 L 448 32 L 448 32 Q 475 33 493 51 Q 511 69 512 96 L 512 352 L 512 352 L 512 416 L 512 416 Q 511 443 493 461 Q 475 479 448 480 L 64 480 L 64 480 Q 37 479 19 461 Q 1 443 0 416 L 0 352 L 0 352 Z M 320 368 Q 305 369 304 384 Q 305 399 320 400 Q 335 399 336 384 Q 335 369 320 368 L 320 368 Z M 352 384 Q 352 398 343 407 L 343 407 L 343 407 Q 334 416 320 416 Q 306 416 297 407 Q 288 398 288 384 Q 288 370 297 361 Q 306 352 320 352 Q 334 352 343 361 Q 352 370 352 384 L 352 384 Z M 400 384 Q 401 399 416 400 Q 431 399 432 384 Q 431 369 416 368 Q 401 369 400 384 L 400 384 Z M 416 416 Q 402 416 393 407 L 393 407 L 393 407 Q 384 398 384 384 Q 384 370 393 361 Q 402 352 416 352 Q 430 352 439 361 Q 448 370 448 384 Q 448 398 439 407 Q 430 416 416 416 L 416 416 Z"
     id="path1"
     style="fill:#000000;fill-opacity:1" />
</svg>
